<?xml version="1.0" encoding="UTF-8"?><svg xmlns="http://www.w3.org/2000/svg" xmlns:xlink="http://www.w3.org/1999/xlink" viewBox="0 0 364.74 736.05"><defs><style>.o{fill:url(#e);}.p{fill:url(#d);}.q{fill:url(#g);}.r{fill:url(#f);}.s{fill:url(#i);}.t{fill:url(#h);}.u{fill:url(#k);}.v{fill:url(#j);}.w{fill:url(#m);}.x{fill:url(#l);}.y{fill:url(#n);}.a`{fill:#00000c;}</style><linearGradient id="d" x1="1.38" y1="367.94" x2="6.73" y2="367.94" gradientTransform="matrix(1, 0, 0, 1, 0, 0)" gradientUnits="userSpaceOnUse"><stop offset="0" stop-color="#666"/><stop offset="1" stop-color="#000"/></linearGradient><linearGradient id="e" x1="358.86" y1="367.97" x2="364.16" y2="367.97" gradientTransform="matrix(1, 0, 0, 1, 0, 0)" gradientUnits="userSpaceOnUse"><stop offset="0" stop-color="#000"/><stop offset="1" stop-color="#666"/></linearGradient><linearGradient id="f" x1="182.37" y1="734.67" x2="182.37" y2="692.34" gradientTransform="matrix(1, 0, 0, 1, 0, 0)" gradientUnits="userSpaceOnUse"><stop offset="0" stop-color="#959595"/><stop offset="1" stop-color="#000"/></linearGradient><linearGradient id="g" x1="182.37" y1="41.79" x2="182.37" y2="-11.05" gradientTransform="matrix(1, 0, 0, 1, 0, 0)" gradientUnits="userSpaceOnUse"><stop offset="0" stop-color="#000"/><stop offset="1" stop-color="gray"/></linearGradient><linearGradient id="h" x1="342.19" y1="368.21" x2="355.06" y2="368.21" gradientTransform="matrix(1, 0, 0, 1, 0, 0)" gradientUnits="userSpaceOnUse"><stop offset="0" stop-color="#f1f1f1"/><stop offset="0" stop-color="#f0f0f0"/><stop offset=".14" stop-color="#b7b7b7"/><stop offset=".27" stop-color="#888"/><stop offset=".4" stop-color="#636363"/><stop offset=".51" stop-color="#484848"/><stop offset=".62" stop-color="#383838"/><stop offset=".7" stop-color="#333"/></linearGradient><linearGradient id="i" x1="17.06" y1="706.6" x2="347.69" y2="706.6" gradientTransform="matrix(1, 0, 0, 1, 0, 0)" gradientUnits="userSpaceOnUse"><stop offset="0" stop-color="#1a1a1a"/><stop offset=".12" stop-color="#444"/><stop offset=".23" stop-color="#666"/><stop offset=".34" stop-color="#7e7e7e"/><stop offset=".44" stop-color="#8c8c8c"/><stop offset=".52" stop-color="#929292"/><stop offset=".59" stop-color="#8a8a8a"/><stop offset=".7" stop-color="#757575"/><stop offset=".82" stop-color="#545454"/><stop offset=".97" stop-color="#252525"/><stop offset="1" stop-color="#1a1a1a"/></linearGradient><linearGradient id="j" y1="29.87" x2="355.09" y2="29.87" xlink:href="#i"/><linearGradient id="k" x1="9.67" y1="367.99" x2="17.31" y2="367.99" gradientTransform="matrix(1, 0, 0, 1, 0, 0)" gradientUnits="userSpaceOnUse"><stop offset="0" stop-color="#c8c8c8"/><stop offset=".21" stop-color="#9f9f9f"/><stop offset=".59" stop-color="#5d5d5d"/><stop offset=".86" stop-color="#333"/><stop offset="1" stop-color="#242424"/></linearGradient><linearGradient id="l" x1="342.16" y1="368.25" x2="355.06" y2="368.25" gradientTransform="matrix(1, 0, 0, 1, 0, 0)" gradientUnits="userSpaceOnUse"><stop offset="0" stop-color="#242424"/><stop offset=".14" stop-color="#333"/><stop offset=".41" stop-color="#5d5d5d"/><stop offset=".79" stop-color="#9f9f9f"/><stop offset="1" stop-color="#c8c8c8"/></linearGradient><linearGradient id="m" x1="160.07" y1="28.11" x2="202.44" y2="28.11" gradientTransform="matrix(1, 0, 0, 1, 0, 0)" gradientUnits="userSpaceOnUse"><stop offset="0" stop-color="#333"/><stop offset=".09" stop-color="#2a2a2a"/><stop offset=".29" stop-color="#1e1e1e"/><stop offset=".48" stop-color="#1a1a1a"/><stop offset=".79" stop-color="#1b1b1b"/><stop offset=".9" stop-color="#222"/><stop offset=".98" stop-color="#2e2e2e"/><stop offset="1" stop-color="#333"/></linearGradient><linearGradient id="n" x1="-62.02" y1="123.58" x2="426.74" y2="612.35" gradientTransform="matrix(1, 0, 0, 1, 0, 0)" gradientUnits="userSpaceOnUse"><stop offset="0" stop-color="#f2f3f4"/><stop offset=".48" stop-color="#edeeee"/><stop offset="1" stop-color="#e2e2e2"/></linearGradient></defs><g id="a"/><g id="b"><g id="c"><g><path class="a`" d="M315.12,0H49.62C22.22,0,0,22.22,0,49.62V686.43c0,27.4,22.22,49.62,49.62,49.62H315.12c27.4,0,49.62-22.22,49.62-49.62V49.62c0-27.4-22.22-49.62-49.62-49.62Zm48.24,681.82c0,5.17-.82,10.15-2.33,14.82-.11,.36-.23,.72-.36,1.07-.12,.36-.25,.71-.39,1.06-.09,.27-.19,.53-.3,.79-.31,.78-.64,1.56-.99,2.32-.16,.34-.31,.68-.48,1.01-.23,.47-.46,.93-.71,1.39-.16,.31-.32,.62-.5,.92-.18,.32-.36,.64-.55,.97-.52,.88-1.07,1.76-1.65,2.62-.18,.27-.37,.54-.56,.81-.21,.3-.42,.6-.65,.89-.21,.29-.43,.59-.66,.88-.22,.29-.45,.58-.69,.87-.23,.29-.47,.57-.72,.86-.47,.56-.97,1.11-1.47,1.65-.77,.83-1.58,1.63-2.41,2.41-.25,.23-.5,.46-.76,.68-.58,.52-1.17,1.01-1.77,1.51-.26,.2-.52,.41-.79,.62-.88,.68-1.78,1.33-2.7,1.94-.3,.21-.62,.41-.93,.61-.63,.41-1.26,.78-1.91,1.15-.32,.19-.64,.37-.96,.53-1.04,.57-2.1,1.11-3.19,1.58-.29,.14-.57,.26-.86,.38-.34,.16-.68,.29-1.03,.43-.35,.14-.7,.28-1.05,.41-.78,.29-1.57,.57-2.38,.82-.28,.09-.56,.17-.85,.26-1.05,.31-2.13,.59-3.21,.83-.38,.08-.76,.17-1.14,.24-.4,.08-.8,.16-1.22,.22-.75,.13-1.5,.24-2.27,.33h-.03c-.15,.02-.29,.04-.44,.05-.1,.02-.21,.03-.31,.03-.05,0-.08,0-.13,0,.68-.07,1.35-.17,2.03-.28,.33-.06,.66-.11,1-.17,.33-.06,.66-.13,.99-.19,.99-.2,1.97-.45,2.94-.72,.32-.08,.64-.18,.96-.29,.64-.19,1.26-.41,1.89-.63,.94-.34,1.86-.71,2.76-1.11,.3-.12,.61-.26,.9-.41,.29-.14,.59-.29,.88-.42,.59-.29,1.17-.6,1.75-.91,.57-.32,1.13-.64,1.69-.99,.51-.31,1-.64,1.5-.96,.06-.03,.1-.06,.15-.1,.81-.55,1.6-1.12,2.38-1.72,.26-.19,.52-.4,.76-.61,.72-.58,1.42-1.19,2.1-1.81,1.68-1.56,3.24-3.23,4.65-5.03,.2-.25,.41-.52,.6-.77,2.04-2.71,3.79-5.66,5.16-8.79,.22-.5,.43-1.01,.63-1.52,.98-2.48,1.74-5.07,2.25-7.75,.1-.52,.19-1.06,.28-1.59,.32-2.16,.5-4.36,.5-6.6V49.62c0-22.5-17.12-41.08-39.02-43.4-.39-.04-.78-.07-1.17-.1-.4-.03-.8-.06-1.2-.07h0c-.75-.04-1.48-.06-2.24-.06H49.63c-.76,0-1.5,.02-2.24,.06h-.03C24.34,7.23,5.99,26.32,5.99,49.62V686.43c0,22.41,16.97,40.92,38.73,43.36-.29-.03-.59-.05-.89-.08h-.03c-.76-.09-1.52-.2-2.27-.33-4.55-.77-8.89-2.18-12.91-4.14-.29-.14-.56-.28-.85-.41-.72-.38-1.43-.76-2.13-1.16-.32-.18-.64-.37-.95-.56-1.58-.96-3.11-2.01-4.57-3.14-.27-.2-.52-.41-.78-.62-.77-.63-1.53-1.27-2.26-1.93-.24-.22-.48-.44-.71-.67-.28-.26-.54-.52-.81-.78-.26-.27-.53-.53-.78-.8-.17-.17-.34-.35-.51-.53-.21-.23-.42-.46-.63-.69-1.23-1.38-2.39-2.83-3.45-4.34-.19-.27-.38-.54-.56-.81-.58-.85-1.12-1.71-1.64-2.6-.19-.31-.38-.64-.55-.96-1.34-2.39-2.47-4.91-3.38-7.52-.13-.36-.25-.71-.36-1.07-.58-1.81-1.06-3.65-1.43-5.53-.07-.38-.15-.76-.21-1.13-.45-2.65-.69-5.38-.69-8.16V49.62c0-.48,0-.95,.03-1.42,0-.36,.02-.71,.04-1.06,.04-.77,.09-1.54,.17-2.3,.04-.4,.08-.79,.13-1.18,.03-.21,.06-.41,.08-.63,.03-.25,.06-.5,.11-.76,.06-.4,.12-.79,.19-1.19,.12-.69,.26-1.37,.41-2.04,.07-.34,.16-.67,.24-1,.24-1,.52-1.98,.83-2.96,.1-.3,.2-.62,.3-.92,.13-.38,.26-.76,.4-1.12,.11-.31,.23-.62,.35-.92,.1-.26,.19-.51,.3-.76,.12-.3,.25-.61,.38-.9,.1-.23,.19-.45,.3-.67,.15-.33,.29-.65,.46-.99,.27-.57,.55-1.14,.86-1.7,.15-.29,.3-.57,.47-.86,.17-.33,.37-.66,.56-.99,1.34-2.28,2.86-4.43,4.54-6.46,.24-.29,.48-.57,.73-.86,.28-.31,.55-.64,.85-.95,.48-.52,.96-1.02,1.46-1.51,.53-.53,1.08-1.05,1.63-1.56,.56-.5,1.12-.99,1.7-1.47,.29-.24,.58-.47,.88-.71,.59-.46,1.19-.91,1.81-1.35,.61-.43,1.22-.86,1.86-1.27,.64-.41,1.27-.8,1.92-1.18,.32-.19,.65-.38,.99-.56s.66-.36,.99-.53c.34-.18,.67-.35,1.01-.52,.34-.17,.68-.33,1.03-.5,.68-.31,1.38-.62,2.09-.9,.33-.14,.67-.28,1.01-.41,.03-.02,.06-.03,.09-.04,.34-.13,.69-.25,1.03-.38,.34-.11,.68-.23,1.02-.35,.39-.12,.77-.25,1.17-.36,.37-.11,.74-.21,1.11-.31,.38-.1,.75-.2,1.12-.29,.38-.09,.76-.18,1.13-.27,.76-.17,1.53-.32,2.3-.45,.38-.06,.76-.13,1.15-.18,.83-.12,1.67-.22,2.51-.29,.66-.06,1.34-.11,2.01-.15,.41-.02,.82-.04,1.23-.05,.41,0,.83-.02,1.24-.02H315.12c.41,0,.83,0,1.24,.02,.34,0,.69,.02,1.03,.04,.78,.04,1.56,.09,2.33,.17h.03c.4,.04,.78,.08,1.17,.13,.4,.05,.78,.1,1.17,.16,.39,.06,.77,.12,1.16,.18s.76,.14,1.14,.21c0,0,.02,0,.02,0,.38,.07,.76,.16,1.13,.24,.35,.07,.69,.16,1.03,.23,.08,.02,.16,.04,.22,.06,.32,.08,.64,.17,.97,.26,.45,.12,.9,.25,1.34,.39,.3,.09,.61,.18,.9,.29,.67,.22,1.34,.45,2,.7,.45,.16,.89,.33,1.33,.52,.32,.13,.64,.27,.96,.41,.35,.15,.69,.3,1.04,.47,.34,.16,.68,.32,1.02,.49,2.43,1.19,4.73,2.58,6.91,4.15,.27,.18,.53,.38,.79,.58,.96,.72,1.88,1.46,2.77,2.25,.4,.34,.78,.69,1.16,1.05,1.56,1.45,3.01,2.99,4.35,4.62,.25,.29,.48,.58,.71,.88,.49,.62,.95,1.23,1.39,1.86,.23,.31,.45,.64,.66,.96,.38,.54,.74,1.11,1.09,1.67,.18,.29,.34,.57,.52,.86,.31,.54,.63,1.09,.92,1.65,.15,.27,.29,.53,.42,.81,.49,.93,.93,1.87,1.35,2.84,.1,.25,.21,.5,.31,.76,.4,.96,.76,1.93,1.1,2.92,.13,.37,.25,.73,.36,1.1,.66,2.12,1.18,4.29,1.55,6.51,.04,.23,.07,.47,.11,.72,.06,.39,.11,.77,.16,1.16,.05,.4,.09,.78,.13,1.18,.05,.4,.07,.79,.11,1.19,.05,.73,.08,1.46,.1,2.19,.02,.47,.03,.94,.03,1.41V681.82Z"/><path class="p" d="M44.99,729.83c-.39-.04-.77-.07-1.16-.12h-.03c-.76-.09-1.52-.2-2.27-.33-4.55-.77-8.89-2.18-12.91-4.14-.29-.14-.56-.28-.85-.41-.72-.38-1.43-.76-2.13-1.16-.32-.18-.64-.37-.95-.56-1.58-.96-3.11-2.01-4.57-3.14-.27-.2-.52-.41-.78-.62-.77-.63-1.53-1.27-2.26-1.93-.24-.22-.48-.44-.71-.67-.28-.26-.54-.52-.81-.78-.26-.27-.53-.53-.78-.8-.17-.17-.34-.35-.51-.53-.21-.23-.42-.46-.63-.69-1.23-1.38-2.39-2.83-3.45-4.34-.19-.27-.38-.54-.56-.81-.58-.85-1.12-1.71-1.64-2.6-.19-.31-.38-.64-.55-.96-1.34-2.39-2.47-4.91-3.38-7.52-.13-.36-.25-.71-.36-1.07-.58-1.81-1.06-3.65-1.43-5.53-.07-.38-.15-.76-.21-1.13-.45-2.65-.69-5.38-.69-8.16V54.22C1.38,28.39,21.81,7.23,47.36,6.04,24.34,7.23,5.99,26.32,5.99,49.62V686.43c0,22.5,17.11,41.08,39.01,43.4Z"/><path class="o" d="M363.36,54.22V681.82c0,5.17-.82,10.15-2.33,14.82-.11,.36-.23,.72-.36,1.07-.12,.36-.25,.71-.39,1.06-.09,.27-.19,.53-.3,.79-.31,.78-.64,1.56-.99,2.32-.16,.34-.31,.68-.48,1.01-.23,.47-.46,.93-.71,1.39-.16,.31-.32,.62-.5,.92-.18,.32-.36,.64-.55,.97-.52,.88-1.07,1.76-1.65,2.62-.18,.27-.37,.54-.56,.81-.21,.3-.43,.6-.65,.89-.21,.3-.44,.6-.66,.88-.23,.29-.46,.58-.69,.87s-.47,.57-.72,.86c-.48,.56-.97,1.11-1.47,1.65-.77,.83-1.58,1.63-2.41,2.41-.25,.22-.5,.45-.76,.68-.58,.52-1.17,1.01-1.77,1.51-.26,.2-.52,.41-.79,.62-.88,.68-1.78,1.33-2.7,1.94-.3,.2-.62,.41-.93,.61-.63,.41-1.26,.78-1.91,1.15-.31,.18-.64,.37-.96,.53-1.04,.57-2.1,1.11-3.19,1.58-.29,.14-.57,.26-.86,.38-.34,.16-.68,.29-1.03,.43-.35,.14-.7,.28-1.05,.41-.78,.29-1.57,.57-2.38,.82-.29,.09-.56,.17-.85,.26-1.05,.31-2.13,.59-3.21,.83-.38,.08-.76,.17-1.14,.24-.4,.08-.8,.16-1.22,.22-.76,.13-1.51,.24-2.27,.33h-.03c-.39,.05-.77,.08-1.16,.12,21.89-2.32,39.02-20.9,39.02-43.4V49.62c0-22.9-17.73-41.73-40.19-43.5,25,1.77,44.79,22.67,44.79,48.11Z"/><path class="r" d="M363.36,681.82v4.61c0,26.6-21.64,48.24-48.24,48.24H49.63c-26.6,0-48.25-21.64-48.25-48.24v-4.61c0,2.78,.24,5.51,.69,8.16,.06,.38,.14,.76,.21,1.13,.37,1.88,.85,3.72,1.43,5.53,.11,.36,.23,.71,.36,1.07,.91,2.61,2.04,5.12,3.38,7.52,.18,.32,.36,.64,.55,.96,.52,.88,1.06,1.75,1.64,2.6,.18,.27,.37,.54,.56,.81,1.07,1.51,2.22,2.96,3.45,4.34,.2,.23,.41,.46,.63,.69,.17,.18,.33,.36,.51,.53,.26,.27,.53,.53,.78,.8,.27,.27,.53,.53,.81,.78,.23,.23,.47,.45,.71,.67,.73,.66,1.48,1.31,2.26,1.93,.26,.21,.52,.41,.78,.62,1.46,1.13,2.98,2.18,4.57,3.14,.31,.19,.63,.38,.95,.56,.7,.41,1.41,.78,2.13,1.16,.29,.14,.56,.28,.85,.41,4.03,1.95,8.36,3.36,12.91,4.14,.75,.13,1.5,.24,2.27,.33h.03c.77,.09,1.55,.17,2.33,.22,.4,.03,.8,.06,1.2,.07,.75,.04,1.5,.06,2.27,.06H315.12c.76,0,1.5-.02,2.25-.06,.4-.02,.8-.05,1.2-.07,.64-.05,1.26-.1,1.89-.17,.15,0,.29-.03,.44-.05h.03c.76-.09,1.52-.2,2.27-.33,.41-.06,.82-.14,1.22-.22,.39-.07,.76-.16,1.14-.24,1.09-.24,2.16-.52,3.21-.83,.29-.08,.57-.17,.85-.26,.8-.25,1.59-.53,2.38-.82,.35-.13,.7-.27,1.05-.41,.35-.14,.69-.28,1.03-.43,.29-.12,.57-.24,.86-.38,1.09-.48,2.15-1.01,3.19-1.58,.32-.17,.64-.34,.96-.53,.64-.37,1.28-.75,1.91-1.15,.31-.19,.63-.4,.93-.61,.92-.62,1.82-1.26,2.7-1.94,.27-.2,.53-.41,.79-.62,.6-.5,1.19-.99,1.77-1.51,.26-.22,.51-.45,.76-.68,.84-.78,1.64-1.58,2.41-2.41,.51-.53,1-1.09,1.47-1.65,.25-.29,.49-.57,.72-.86,.24-.29,.47-.57,.69-.87,.23-.29,.45-.59,.66-.88,.23-.29,.44-.59,.65-.89,.19-.27,.38-.54,.56-.81,.58-.86,1.13-1.73,1.65-2.62,.19-.32,.38-.64,.55-.97,.17-.3,.34-.61,.5-.92,.25-.46,.48-.92,.71-1.39,.17-.33,.33-.67,.48-1.01,.35-.76,.68-1.54,.99-2.32,.11-.26,.21-.53,.3-.79,.14-.35,.27-.7,.39-1.06,.13-.35,.25-.71,.36-1.07,1.51-4.67,2.33-9.65,2.33-14.82Z"/><path class="q" d="M363.36,49.62v4.61c0-25.04-19.18-45.68-43.62-48.01-.39-.04-.78-.07-1.17-.1-.4-.03-.8-.06-1.2-.07h0c-.75-.04-1.48-.06-2.24-.06H49.63c-.76,0-1.5,.02-2.24,.06h-.03C21.81,7.23,1.38,28.39,1.38,54.22v-4.61c0-.48,0-.95,.03-1.42,0-.36,.02-.71,.04-1.06,.04-.77,.09-1.54,.17-2.3,.04-.4,.08-.79,.13-1.18,.03-.21,.06-.41,.08-.63,.03-.25,.06-.5,.11-.76,.06-.4,.12-.79,.19-1.19,.12-.69,.26-1.37,.41-2.04,.07-.34,.16-.67,.24-1,.24-1,.52-1.98,.83-2.96,.1-.3,.2-.62,.3-.92,.13-.38,.26-.76,.4-1.12,.11-.31,.23-.62,.35-.92,.1-.26,.19-.51,.3-.76,.12-.3,.25-.61,.38-.9,.1-.23,.19-.45,.3-.67,.15-.33,.29-.65,.46-.99,.27-.57,.55-1.14,.86-1.7,.15-.29,.3-.57,.47-.86,.17-.33,.37-.66,.56-.99,1.34-2.28,2.86-4.43,4.54-6.46,.24-.29,.48-.57,.73-.86,.28-.31,.55-.64,.85-.95,.48-.52,.96-1.02,1.46-1.51,.53-.53,1.08-1.05,1.63-1.56,.56-.5,1.12-.99,1.7-1.47,.29-.24,.58-.47,.88-.71,.59-.46,1.19-.91,1.81-1.35,.61-.43,1.22-.86,1.86-1.27,.64-.41,1.27-.8,1.92-1.18,.32-.19,.65-.38,.99-.56s.66-.36,.99-.53c.34-.18,.67-.35,1.01-.52,.34-.17,.68-.33,1.03-.5,.68-.31,1.38-.62,2.09-.9,.33-.14,.67-.28,1.01-.41,.03-.02,.06-.03,.09-.04,.34-.13,.69-.25,1.03-.38,.34-.11,.68-.23,1.02-.35,.39-.12,.77-.25,1.17-.36,.37-.11,.74-.21,1.11-.31,.38-.1,.75-.2,1.12-.29,.38-.09,.76-.18,1.13-.27,.76-.17,1.53-.32,2.3-.45,.38-.06,.76-.13,1.15-.18,.83-.12,1.67-.22,2.51-.29,.66-.06,1.34-.11,2.01-.15,.41-.02,.82-.04,1.23-.05,.41,0,.83-.02,1.24-.02H315.12c.41,0,.83,0,1.24,.02,.34,0,.69,.02,1.03,.04,.78,.04,1.56,.09,2.33,.17h.03c.4,.04,.78,.08,1.17,.13,.4,.05,.78,.1,1.17,.16,.39,.06,.77,.12,1.16,.18s.76,.14,1.14,.21c0,0,.02,0,.02,0,.38,.07,.76,.16,1.13,.24,.35,.07,.69,.16,1.03,.23,.08,.02,.16,.04,.22,.06,.32,.08,.64,.17,.97,.26,.45,.12,.9,.25,1.34,.39,.3,.09,.61,.18,.9,.29,.67,.22,1.34,.45,2,.7,.45,.16,.89,.33,1.33,.52,.32,.13,.64,.27,.96,.41,.35,.15,.69,.3,1.04,.47,.34,.16,.68,.32,1.02,.49,2.43,1.19,4.73,2.58,6.91,4.15,.27,.18,.53,.38,.79,.58,.96,.72,1.88,1.46,2.77,2.25,.4,.34,.78,.69,1.16,1.05,1.56,1.45,3.01,2.99,4.35,4.62,.25,.29,.48,.58,.71,.88,.49,.62,.95,1.23,1.39,1.86,.23,.31,.45,.64,.66,.96,.38,.54,.74,1.11,1.09,1.67,.18,.29,.34,.57,.52,.86,.31,.54,.63,1.09,.92,1.65,.15,.27,.29,.53,.42,.81,.49,.93,.93,1.87,1.35,2.84,.1,.25,.21,.5,.31,.76,.4,.96,.76,1.93,1.1,2.92,.13,.37,.25,.73,.36,1.1,.66,2.12,1.18,4.29,1.55,6.51,.04,.23,.07,.47,.11,.72,.06,.39,.11,.77,.16,1.16,.05,.4,.09,.78,.13,1.18,.05,.4,.07,.79,.11,1.19,.05,.73,.08,1.46,.1,2.19,.02,.47,.03,.94,.03,1.41Z"/><path d="M317.37,6.04h0c-.74-.04-1.48-.06-2.24-.06H49.63c-.76,0-1.5,.02-2.24,.06h-.03C24.34,7.23,5.99,26.32,5.99,49.62V686.43c0,22.9,17.72,41.73,40.18,43.5,.4,.03,.8,.06,1.2,.07,.75,.04,1.5,.06,2.27,.06H315.12c.76,0,1.5-.02,2.25-.06,.4-.02,.8-.05,1.2-.07,22.46-1.77,40.19-20.6,40.19-43.5V49.62c0-23.3-18.37-42.4-41.38-43.58Zm37.7,680.39c0,20.71-16.16,38.21-36.76,39.83-.37,.03-.75,.06-1.12,.06-.68,.04-1.37,.06-2.06,.06H49.63c-.7,0-1.4-.02-2.09-.06-.37,0-.75-.04-1.09-.06-20.62-1.62-36.78-19.12-36.78-39.83V49.62C9.67,28.38,26.26,10.87,47.46,9.73h.11c.67-.04,1.36-.06,2.05-.06H315.12c.69,0,1.38,.02,2.05,.05h.06c21.22,1.12,37.83,18.64,37.83,39.9V686.43Z"/><path class="t" d="M355.06,49.88V686.69c0,3.94-.59,7.77-1.68,11.39-.88,2.89-2.06,5.66-3.55,8.24-.3,.53-.63,1.06-.95,1.57-.5,.77-1.01,1.53-1.55,2.27-1.53,2.08-3.25,4.01-5.14,5.77,3.49-6.1,5.49-13.17,5.49-20.65v-7.34c.02-.43,.03-.88,.03-1.32V49.81c0-.45,0-.9-.03-1.34v-7.18c0-7.57-2-14.68-5.5-20.79,7.93,7.31,12.87,17.8,12.87,29.38Z"/><path d="M317.05,13.41h-.17c-.58-.04-1.17-.05-1.76-.05H49.63c-.6,0-1.21,.02-1.8,.04l-.18,.02h-.09C28.37,14.49,13.36,30.38,13.36,49.62V686.43c0,18.8,14.66,34.68,33.39,36.15,.27,.02,.58,.05,.88,.05h.11c.63,.04,1.26,.05,1.89,.05H315.12c.62,0,1.25-.02,1.86-.05h.11c.31-.01,.63-.04,.92-.06,18.71-1.47,33.36-17.35,33.36-36.15V49.62c0-19.29-15.08-35.2-34.34-36.21Zm24.67,673.02c0,13.79-10.74,25.43-24.45,26.51-.13,0-.26,.02-.39,.03h-.34l-.07,.02c-.45,.02-.9,.04-1.34,.04H49.63c-.46,0-.92-.01-1.38-.04h-.37c-.11-.02-.23-.03-.36-.04-13.73-1.08-24.48-12.72-24.48-26.51V49.62c0-14.01,10.89-25.62,24.83-26.54h.24l.36-.03c.43-.01,.81-.02,1.17-.02H315.12c.36,0,.75,0,1.2,.02h.22c14.12,.76,25.17,12.42,25.17,26.57V686.43Z"/><path d="M272.63,23.03v3.47c0,11.69-9.48,21.17-21.17,21.17H113.27c-11.69,0-21.17-9.48-21.17-21.17v-3.47h180.53Z"/><path d="M272.63,23.03v3.47c0,11.69-9.48,21.17-21.17,21.17H113.27c-11.69,0-21.17-9.48-21.17-21.17v-3.47h180.53Z"/><path class="s" d="M347.69,687.94v7.34c0,7.48-2,14.55-5.49,20.65-6.38,5.91-14.69,9.79-23.87,10.52-.37,.03-.75,.06-1.12,.06-.68,.04-1.37,.06-2.06,.06H49.65c-.7,0-1.4-.02-2.09-.06-.37,0-.75-.04-1.09-.06-.51-.04-1.01-.09-1.52-.16-8.58-1-16.33-4.77-22.35-10.35-3.52-6.12-5.54-13.22-5.54-20.72v-8.59c0,9.81,4.45,18.74,11.47,24.75,5.07,4.35,11.48,7.18,18.52,7.73,.23,.02,.46,.05,.69,.05h.2c.56,.04,1.13,.06,1.7,.06H315.14c.55,0,1.11-.02,1.67-.05h.21c.26,0,.51-.04,.76-.06,16.34-1.28,29.25-14.85,29.92-31.16Z"/><path class="v" d="M355.06,49.88l.03-.06c0-21.26-16.61-38.78-37.83-39.89h-.06c-.67-.04-1.36-.06-2.05-.06H49.65c-.69,0-1.38,.02-2.05,.05h-.11c-.87,.06-1.71,.13-2.56,.23-8.61,1.01-16.35,4.74-22.36,10.29-3.5,6.11-5.5,13.22-5.5,20.79v8.59c0-9.89,4.42-18.8,11.44-24.8,5.21-4.45,11.85-7.29,19.19-7.73h.17l.24-.03c.56-.02,1.07-.03,1.54-.03H315.14c.42,0,.88,0,1.39,.03h0l.33,.02c16.85,.88,30.14,14.46,30.82,31.19v-7.18c0-7.57-2-14.68-5.5-20.79,7.93,7.31,12.87,17.8,12.87,29.38Z"/><path class="u" d="M22.58,715.75c-7.94-7.35-12.9-17.84-12.9-29.32V49.62c0-11.59,4.94-22.07,12.87-29.38-3.5,6.11-5.5,13.22-5.5,20.79V695.02c0,7.51,2.02,14.61,5.54,20.72Z"/><path class="x" d="M355.06,49.88V686.69c0,3.94-.59,7.77-1.68,11.39-.88,2.89-2.06,5.66-3.55,8.24-.3,.53-.63,1.06-.95,1.57-.48,.77-.99,1.53-1.55,2.27-1.53,2.11-3.27,4.07-5.19,5.84,.02-.03,.03-.05,.05-.07,3.49-6.1,5.49-13.17,5.49-20.65V41.28c0-7.57-2-14.68-5.5-20.79,7.93,7.31,12.87,17.8,12.87,29.38Z"/><rect class="w" x="160.07" y="25.89" width="42.37" height="4.45" rx="1.77" ry="1.77"/><g/><path class="y" d="M316.88,23.04h-.24l-.36-.04c-.42-.02-.81-.02-1.17-.02h-38.31c-2.19,.11-3.96,1.81-4.18,3.97,0,.15-.02,.29-.02,.45v.06c-.52,11.23-9.79,20.16-21.14,20.16H113.26c-11.35,0-20.61-8.93-21.14-20.16v-.06c0-.16,0-.3-.02-.45-.22-2.16-1.99-3.86-4.18-3.97H49.61c-.36,0-.75,0-1.17,.02l-.36,.04h-.24c-13.95,.91-24.83,12.52-24.83,26.54V686.42c0,13.78,10.76,25.43,24.48,26.51,.14,0,.25,.02,.36,.03h.32l.06,.02c.46,.02,.92,.04,1.38,.04H315.11c.46,0,.92-.02,1.38-.04h.21l.07-.02h.09c.11,0,.22-.02,.36-.03,13.72-1.08,24.48-12.73,24.48-26.51V49.57c0-14.02-10.89-25.63-24.83-26.54Z"/></g></g></g></svg>