<?xml version="1.0" standalone="no"?>
<!DOCTYPE svg PUBLIC "-//W3C//DTD SVG 20010904//EN"
 "http://www.w3.org/TR/2001/REC-SVG-20010904/DTD/svg10.dtd">
<svg version="1.0" xmlns="http://www.w3.org/2000/svg"
 width="657.000000pt" height="657.000000pt" viewBox="0 0 657.000000 657.000000"
 preserveAspectRatio="xMidYMid meet">
<metadata>
Created by potrace 1.14, written by Peter Selinger 2001-2017
</metadata>
<g transform="translate(0.000000,657.000000) scale(0.100000,-0.100000)"
fill="#000000" stroke="none">
<path d="M4559 4744 c-6 -230 0 -463 10 -465 4 0 38 -2 76 -4 195 -10 276 -60
310 -190 4 -16 9 -142 10 -280 2 -137 8 -276 13 -307 14 -73 45 -134 89 -175
l35 -33 -29 -24 c-40 -34 -81 -114 -94 -182 -6 -31 -12 -175 -13 -318 -3 -250
-4 -263 -26 -312 -22 -48 -72 -92 -130 -115 -20 -8 -151 -22 -203 -22 -32 1
-38 -3 -44 -26 -9 -35 -9 -471 0 -495 7 -18 17 -19 165 -13 236 9 372 37 480
99 29 16 67 44 85 61 41 40 96 123 103 157 3 14 9 36 14 50 13 39 19 78 25
164 3 43 8 82 10 87 5 8 160 91 440 237 39 21 72 39 75 42 3 3 39 22 80 43
139 72 402 212 455 244 19 11 20 23 20 316 0 332 1 324 -59 353 -17 8 -62 31
-101 52 -38 21 -126 67 -195 104 -69 36 -156 82 -195 103 -38 20 -119 63 -180
95 -229 122 -311 165 -328 176 -14 8 -19 26 -22 80 -6 142 -26 223 -72 303
-61 106 -187 187 -337 217 -110 22 -115 23 -298 30 l-168 7 -1 -59z m1381
-1428 c22 -11 40 -23 40 -27 0 -12 -253 -149 -275 -149 -6 0 -9 55 -7 150 l3
150 100 -53 c54 -28 117 -61 139 -71z"/>
<path d="M1706 4773 c-1 -1 -33 -5 -71 -8 -152 -15 -323 -74 -395 -138 -95
-85 -147 -213 -155 -384 -4 -83 -15 -113 -40 -113 -7 0 -24 -9 -39 -21 -14
-11 -26 -17 -26 -14 0 4 -6 3 -12 -2 -7 -6 -58 -34 -113 -63 -55 -29 -131 -70
-170 -90 -133 -71 -260 -138 -350 -185 -49 -26 -96 -52 -103 -57 -6 -6 -12 -7
-12 -4 0 4 -12 -1 -27 -11 -16 -11 -57 -34 -93 -52 -103 -53 -95 -26 -96 -329
-1 -147 2 -287 5 -311 7 -49 -7 -39 176 -136 212 -112 390 -207 460 -245 28
-15 109 -58 180 -95 167 -87 238 -126 248 -135 5 -4 10 -40 12 -81 5 -111 13
-151 48 -239 24 -62 35 -78 93 -136 108 -108 313 -164 601 -164 116 0 130 2
132 18 1 9 3 124 4 254 1 130 5 239 7 241 3 2 64 7 135 11 72 3 141 8 155 10
14 3 41 7 60 10 19 3 50 10 67 15 18 5 33 8 33 6 0 -2 30 7 68 19 99 34 179
82 234 141 38 41 85 140 94 200 12 85 9 1526 -4 1534 -19 11 -490 7 -501 -4
-7 -7 -11 -228 -11 -666 -1 -599 -2 -658 -18 -689 -30 -61 -116 -90 -276 -94
-57 -1 -60 -2 -68 -31 -4 -17 -7 -122 -6 -235 l1 -205 -59 1 c-136 2 -224 33
-272 94 -39 51 -45 95 -47 360 -2 140 -6 273 -10 295 -13 74 -45 142 -87 185
-33 33 -38 44 -27 51 8 5 19 13 24 17 15 10 67 82 60 82 -3 0 1 14 10 30 9 17
13 30 11 30 -3 0 -1 12 5 28 7 16 12 130 14 292 1 146 5 281 10 300 26 119
108 177 265 187 126 7 123 6 129 39 8 47 6 436 -2 467 l-8 28 -120 -3 c-66 -2
-121 -4 -123 -5z m-886 -1370 c4 -160 4 -293 2 -293 -7 0 -77 34 -82 39 -3 4
-49 29 -102 56 -54 28 -97 54 -95 58 1 5 54 36 117 69 63 33 119 64 125 69 11
11 35 12 35 2z"/>
<path d="M3867 4254 c-1 -1 -42 -5 -92 -8 -49 -3 -103 -9 -120 -12 -16 -4 -39
-8 -50 -9 -11 -2 -20 -4 -20 -5 0 -1 -8 -3 -18 -5 -55 -10 -159 -49 -208 -78
-76 -43 -109 -73 -152 -136 -72 -104 -71 -93 -75 -701 -3 -525 1 -624 27 -679
5 -9 17 -34 27 -56 58 -121 256 -234 457 -260 17 -2 57 -8 87 -12 104 -15 469
-7 560 12 13 2 42 7 65 10 22 3 63 10 90 15 28 6 60 12 73 15 38 7 62 16 63
23 5 35 3 1031 -2 1042 -7 14 -51 16 -350 15 l-343 0 -7 -35 c-9 -39 -10 -334
-2 -392 l5 -38 114 0 114 0 0 -84 c0 -101 6 -96 -135 -91 -109 4 -200 19 -222
36 -7 6 -13 8 -13 3 0 -12 -55 47 -70 76 -11 19 -14 99 -15 350 0 179 2 340 6
359 18 81 71 117 204 138 94 14 441 5 591 -16 72 -11 93 -4 93 27 1 394 0 420
-12 438 -7 12 -58 22 -145 29 -29 3 -57 7 -61 9 -15 10 -455 28 -464 20z"/>
</g>
</svg>
